<svg xmlns="http://www.w3.org/2000/svg" width="32" height="32"><g transform="translate(-236.846 235.951)"><path fill="#cdd7e0" fill-rule="evenodd" d="M249.783-228.153c-2.437-2.765.563-4.765 3.016-7.141 2.547 2.376 5.547 4.376 3.015 7.141"/><path fill="none" stroke="#12141a" stroke-linecap="round" stroke-linejoin="round" d="M249.576-228.592c-2.05-2.637.844-4.588 3.223-6.892 2.442 2.28 5.302 4.212 3.299 6.806"/><path fill="#e1e7f0" fill-rule="evenodd" d="M252.747-234.918c-1.401 2-2.859 4-2.401 6h1c-.536-2 .247-4 1.401-6z"/><path fill="#cdd7e0" fill-rule="evenodd" d="M255.85-228.6c-.083 6.794.543 12.688 2.024 18.149h-10.01c1.482-5.46 2.075-11.355 1.994-18.148z"/><path fill="#92a3b3" fill-rule="evenodd" d="M255.85-228.41c-.083 6.794.543 12.498 2.024 17.959h-10.01c6.265-1.679 7.985-2.259 7.985-17.958z"/><path fill="#1b1e34" stroke="#12141a" stroke-linecap="round" style="isolation:auto;mix-blend-mode:normal" d="M245.471-207.412c-.901 0-1.625.615-1.625 1.38v.235l.002.026h-.002v1.353h18v-1.353h-.002l.002-.026v-.236c0-.764-.724-1.379-1.626-1.379h-14.749z" color="#000" overflow="visible"/><path fill="#2e303e" fill-rule="evenodd" d="M246.948-206.925h2c-.33.366-.446.718-.46 1.06-.012.334.015.5.015.94h-2.073c0-.578-.015-.68-.005-1.02.009-.327.184-.653.524-.98z"/><rect width="13.832" height="3" x="245.963" y="-210.412" fill="#cdd7e0" stroke="#12141a" rx="1.5" ry="1.5"/><path fill="#fff" fill-rule="evenodd" d="M247.934-209.912h2c-.642.711-.587 1.374 0 2h-2c-.706-.667-.693-1.333 0-2zm2.717 0h.713c-.642.711-.587 1.374 0 2h-.713c-.706-.667-.693-1.333 0-2z" opacity=".35"/><path fill="#24273b" fill-rule="evenodd" d="M249.697-206.925h.777c-.33.366-.446.718-.46 1.06-.013.334.014.5.014.94h-.85c0-.578-.014-.68-.005-1.02.01-.327.185-.653.525-.98z"/><path fill="#92a3b3" fill-rule="evenodd" d="M258.022-209.912h-1.102c.642.711.587 1.374 0 2h1.102c.705-.667.692-1.333 0-2z"/><path fill="#16192b" fill-rule="evenodd" d="M259.635-206.925h-1.371c.33.366.446.718.46 1.06.013.334-.014.5-.014.94h1.444c0-.578.014-.68.005-1.02-.01-.327-.185-.653-.524-.98z"/><rect width="5.781" height="1" x="249.955" y="-225.903" fill="#92a3b3" rx="0" ry="0"/><path fill="none" stroke="#dce4ea" d="M248.97-210.451c1.482-5.46 1.948-11.14 1.867-17.933" opacity=".6"/><path fill="none" stroke="#12141a" d="M255.85-228.362c-.092 7.538.543 12.45 2.024 17.911h-10.01c1.482-5.46 2.084-10.373 1.994-17.91"/><rect width="10" height="2" x="247.846" y="-228.418" fill="#cdd7e0" stroke="#12141a" rx="1.13" ry="1"/><path fill="#fff" fill-rule="evenodd" d="M250.358-227.918h1c-.321.356-.293.687 0 1h-1c-.353-.333-.346-.666 0-1z" opacity=".35"/><path fill="#92a3b3" fill-rule="evenodd" d="M256.083-227.918h-1c.321.356.294.687 0 1h1c.353-.333.347-.666 0-1z"/><path fill="#fff" fill-rule="evenodd" d="M249.861-228.223c-.146.146-.612.306-.612.306s.469.163.612.307c.144.143.306.606.306.606s.163-.463.306-.606c.144-.144.613-.307.613-.307s-.467-.16-.613-.306c-.146-.146-.306-.626-.306-.626s-.16.48-.306.626z" color="#000" font-family="sans-serif" font-weight="400" overflow="visible" style="line-height:normal;text-indent:0;text-align:start;text-decoration-line:none;text-decoration-style:solid;text-decoration-color:#000;text-transform:none;block-progression:tb;isolation:auto;mix-blend-mode:normal"/></g></svg>