<svg xmlns="http://www.w3.org/2000/svg" width="32" height="32"><g transform="translate(-194.949 195.336)"><rect width="6" height="3.5" x="207.949" y="-192.835" fill="#1a1a1a" stroke="#000" rx="1.742" ry="1.75"/><path fill="#1a1a1a" fill-rule="evenodd" d="M213.952-188.929c-.082 6.793.544 13.597 2.025 19.058h-10.01c1.482-5.46 2.075-12.265 1.994-19.058z"/><path fill="#0f1211" fill-rule="evenodd" d="M213.952-187.83c-.082 6.794.544 12.498 2.025 17.959h-10.01c6.265-1.679 7.985-2.259 7.985-17.958z"/><path fill="#0a0a0a" stroke="#000" stroke-linecap="round" d="M203.574-166.832c-.902 0-1.625.615-1.625 1.38v.235l.002.026h-.002v1.353h18v-1.353h-.002l.002-.026v-.236c0-.764-.724-1.379-1.626-1.379h-14.749z" color="#000" overflow="visible" style="isolation:auto;mix-blend-mode:normal"/><rect width="5.629" height="1" x="208.134" y="-183.335" fill="#0f1211" rx="0" ry="0"/><path fill="#4d4d4d" fill-rule="evenodd" stroke="#4d4d4d" d="M206.99-169.871c1.482-5.46 1.957-11.464 1.867-18.958" opacity=".42"/><path fill="#2f2f2f" fill-rule="evenodd" d="M205.051-166.345h2c-.33.366-.446.718-.46 1.06-.013.334.014.5.014.94h-2.073c0-.578-.014-.68-.005-1.02.01-.327.185-.653.524-.98z"/><rect width="13.832" height="3" x="204.066" y="-169.832" fill="#333" stroke="#000" rx="1.5" ry="1.5"/><path fill="#fff" fill-rule="evenodd" d="M206.037-169.332h2c-.642.711-.587 1.374 0 2h-2c-.706-.667-.693-1.333 0-2zm2.717 0h.712c-.641.711-.586 1.374 0 2h-.712c-.706-.667-.693-1.333 0-2z" opacity=".109"/><path fill="#2f2f2f" fill-rule="evenodd" d="M207.8-166.345h.777c-.33.366-.446.718-.46 1.06-.013.334.014.5.014.94h-.85c0-.578-.014-.68-.005-1.02.01-.327.185-.653.524-.98z"/><path fill="#0f1211" fill-rule="evenodd" d="M216.124-169.332h-1.1c.641.711.586 1.374 0 2h1.1c.706-.667.693-1.333 0-2z"/><path fill="#2f2f2f" fill-rule="evenodd" d="M217.738-166.345h-1.371c.33.366.446.718.46 1.06.013.334-.014.5-.014.94h1.444c0-.578.014-.68.005-1.02-.01-.327-.185-.653-.524-.98z"/><circle cx="210.962" cy="-193.834" r="1.001" fill="#1a1a1a" stroke="#000" stroke-linecap="round" stroke-linejoin="round"/><rect width="10" height="2" x="205.949" y="-190.835" fill="#333" stroke="#000" rx="1.13" ry="1"/><path fill="#fff" fill-rule="evenodd" d="M208.46-190.335h1c-.32.356-.292.687 0 1h-1c-.352-.333-.345-.666 0-1z" opacity=".11"/><path fill="none" stroke="#000" d="M213.952-189.029c0 7.694.544 13.697 2.025 19.158h-10.01c1.482-5.46 2.086-11.464 1.994-19.158"/><rect width="10" height="2" x="205.949" y="-185.85" fill="#333" stroke="#000" rx="1.13" ry="1"/><path fill="#fff" fill-rule="evenodd" d="M208.46-185.35h1c-.32.356-.292.687 0 1h-1c-.352-.333-.345-.666 0-1z" opacity=".11"/><path fill="#1a1a1a" fill-rule="evenodd" d="M206.949-188.835h8c-.5.5-.5 2.5 0 3h-8c.5-.5.5-2.5 0-3z"/><rect width="7" height="1" x="207.449" y="-188.323" fill="#0f1211" rx="0" ry="0"/><path fill="#4d4d4d" fill-rule="evenodd" stroke="#2f2f2f" d="M208.802-185.835c.5-.5.5-2.5 0-3" opacity=".421"/><path fill="none" stroke="#000" d="M206.949-188.835h8c-.5.5-.5 2.5 0 3h-8c.5-.5.5-2.5 0-3z"/><path fill="#2f2f2f" fill-rule="evenodd" d="M210.442-191.335h-.977c0-.374.308-1 1.484-1-.598.16-.507.526-.507 1z"/><path fill="#0f1211" fill-rule="evenodd" d="M214.186-190.335h-1c.321.356.294.687 0 1h1c.353-.333.347-.666 0-1zm0 4.985h-1c.321.356.294.687 0 1h1c.353-.333.347-.666 0-1z"/><path fill="#fff" fill-rule="evenodd" style="line-height:normal;text-indent:0;text-align:start;text-decoration-line:none;text-decoration-style:solid;text-decoration-color:#000;text-transform:none;block-progression:tb;isolation:auto;mix-blend-mode:normal" d="M207.939-190.65c-.146.146-.612.306-.612.306s.468.162.612.306c.143.143.306.606.306.606s.162-.463.306-.606c.144-.144.612-.306.612-.306s-.466-.16-.612-.306c-.146-.146-.306-.627-.306-.627s-.16.48-.306.627z" color="#000" font-family="sans-serif" font-weight="400" overflow="visible"/></g></svg>